<svg width="240" height="381" viewBox="0 0 240 381" fill="none" xmlns="http://www.w3.org/2000/svg">
<g clip-path="url(#clip0_202_1992)">
<path d="M60.3169 259.83C58.4862 269.115 54.825 276.43 49.6148 278.728C38.9126 283.417 14.9736 269.49 4.74086 251.343C0.563278 243.934 -1.31427 235.868 0.938808 228.037C5.86742 210.734 29.9003 198.261 44.1698 204.216C59.8475 210.781 64.3067 239.807 60.3169 259.83Z" fill="#FFD529"/>
<g style="mix-blend-mode:soft-light">
<g style="mix-blend-mode:soft-light">
<path d="M60.3169 259.83C58.4863 269.115 54.825 276.43 49.6148 278.728C38.9127 283.417 14.9736 269.49 4.7409 251.343L5.86745 251.812C8.79558 253.091 11.8065 254.172 14.8798 255.047C20.4186 256.735 25.5819 258.424 31.3554 259.361C37.4399 260.321 43.5969 260.745 49.7556 260.627H51.1638L52.3842 260.534C53.9801 260.393 55.623 260.112 57.2658 260.018L59.6128 259.877H60.3169V259.83Z" fill="#191E1A"/>
</g>
</g>
<path d="M239.953 303.393C239.953 304.19 239.906 305.034 239.859 305.832C239.867 306.254 239.851 306.677 239.812 307.098C239.818 307.271 239.802 307.444 239.765 307.614C239.765 308.036 239.718 308.504 239.718 308.927L239.578 310.802L239.437 312.303C239.39 312.959 239.343 313.569 239.249 314.225C239.155 314.882 239.202 314.554 239.202 314.741L239.061 315.773C239.014 316.336 238.92 316.898 238.873 317.461L238.733 318.446C238.639 318.961 238.592 319.524 238.498 320.04C238.404 320.556 238.31 321.025 238.263 321.541C238.216 322.056 238.029 322.807 237.935 323.416L237.653 324.917C237.278 326.793 236.855 328.668 236.386 330.45C236.198 331.06 236.057 331.669 235.869 332.279C235.851 332.422 235.819 332.563 235.775 332.701C235.588 333.264 235.4 333.873 235.259 334.483L234.133 337.859C233.956 338.257 233.799 338.664 233.663 339.078C233.616 339.172 233.616 339.266 233.569 339.313C233.522 339.36 233.241 340.204 233.053 340.626L232.443 342.079L231.88 343.299C231.598 343.908 231.269 344.518 230.988 345.081L230.659 345.737L229.908 347.05L229.486 347.753L229.11 348.316L228.782 348.832C228.642 349.077 228.485 349.312 228.312 349.535L227.608 350.52L226.575 351.786C226.191 352.273 225.767 352.728 225.308 353.146C225.117 353.361 224.913 353.564 224.698 353.756L224.088 354.318L223.712 354.6C223.367 354.884 223.006 355.151 222.633 355.397L222.069 355.772C221.168 356.329 220.207 356.785 219.206 357.132L219.018 357.413L218.924 357.507L218.408 358.117L218.032 358.492C216.257 360.441 214.256 362.173 212.071 363.65L211.414 364.119C210.37 364.818 209.289 365.46 208.175 366.041L207.33 366.463L205.64 367.261L204.092 367.917L201.698 368.714L200.853 368.949C199.802 369.238 198.736 369.472 197.661 369.652L196.628 369.84L195.596 369.98H194.844L193.436 370.074H188.508L187.616 369.98L184.8 369.511L183.955 369.324L183.297 369.183L182.03 368.855L181.232 368.667L180.528 368.433L179.824 368.198L178.65 367.823L177.477 367.354C176.243 366.91 175.036 366.393 173.863 365.807L172.689 365.197C171.797 364.775 170.952 364.306 170.108 363.837L169.263 363.322L167.526 362.29L165.32 360.789C165.32 360.789 162.879 361.446 158.795 362.243L158.514 362.337L157.622 362.478C155.65 362.853 153.397 363.275 150.863 363.65L149.877 363.791L146.216 364.259L144.995 364.4L144.009 364.494L143.118 364.588L141.803 364.728L140.536 364.822C138.705 364.963 136.781 365.104 134.856 365.15L132.979 365.244H128.144L125.046 365.15L121.385 364.916L120.023 364.775L116.128 364.306L114.532 364.025L112.044 363.556L110.964 363.322L109.321 362.9L107.866 362.524L107.538 362.431L106.411 362.102L106.27 362.009L105.66 361.821C104.674 361.54 103.736 361.165 102.75 360.789V360.883H102.609L102.515 360.977L102.14 361.305L101.811 361.54C101.154 362.102 100.121 362.9 98.8539 363.791C96.4147 365.51 93.8221 367.001 91.1089 368.245L90.311 368.62C88.8419 369.267 87.3375 369.831 85.8048 370.309L84.7252 370.637C83.9272 370.824 83.1293 371.059 82.2844 371.2L81.064 371.434L78.8578 371.762H78.4823L77.168 371.856H73.8353C73.2847 371.856 72.7351 371.809 72.1925 371.715L70.6434 371.528H70.0333L69.423 371.434L69.0006 371.34L68.2965 371.153L66.9352 370.777L66.2311 370.59L64.9169 370.121L63.8842 369.699L63.7434 369.605L62.7577 369.183L62.0536 368.855C60.5025 368.059 59.0121 367.15 57.5944 366.135L56.7025 365.479C55.7637 364.775 54.8719 364.025 53.9331 363.181L53.0412 362.337L52.1494 361.446L51.3045 360.602L51.2106 360.508L50.3188 359.523C50.0372 359.195 49.7086 358.867 49.427 358.492C49.1453 358.117 48.2534 357.038 47.6432 356.288L46.7514 355.115C42.7491 349.706 39.5405 343.753 37.2228 337.437C36.8942 336.64 36.6595 335.843 36.3778 335.046L36.0024 333.826C35.7677 333.029 35.5799 332.279 35.3921 331.482C35.2044 330.685 35.0166 329.934 34.8289 329.184L34.4064 326.886C33.8744 323.71 33.6074 320.494 33.6084 317.273V316.007C33.6084 315.679 33.6554 315.398 33.6554 315.069C33.6476 314.85 33.6634 314.629 33.7023 314.413C33.6936 314.006 33.7092 313.599 33.7493 313.194C33.7573 312.91 33.7887 312.628 33.8431 312.35C33.849 311.988 33.8804 311.628 33.937 311.271C33.984 310.615 34.0779 309.958 34.1717 309.349L34.4534 307.379L34.5942 306.629C34.6343 306.343 34.697 306.061 34.7819 305.785L34.9227 304.988L35.2044 303.675C35.3045 303.384 35.3829 303.086 35.4391 302.784L35.7207 301.846C35.7709 301.542 35.8494 301.244 35.9554 300.955C36.0498 300.662 36.1281 300.365 36.1901 300.064L36.4718 299.22L36.7534 298.423C37.2697 296.969 37.7391 295.703 38.2085 294.624L38.3493 294.249C38.3618 294.249 38.3737 294.244 38.3825 294.236C38.3913 294.227 38.3963 294.215 38.3963 294.202C39.4758 291.811 40.2738 290.451 40.2738 290.451C37.6695 289.447 35.2077 288.107 32.9513 286.465C26.076 281.732 20.8435 274.98 17.9777 267.145C16.5972 263.319 15.7138 259.332 15.3491 255.282C14.7389 249.186 15.1144 242.152 16.945 233.993C18.7756 225.833 22.39 215.283 28.1166 203.888C33.3678 193.559 39.3604 183.623 46.0473 174.158C46.0473 174.158 15.0205 161.919 15.0674 99.4586C15.0674 99.4586 -36.9411 25.6501 52.478 40.0929L55.2474 40.5619H55.6698L56.2801 40.4681H56.6086L58.4862 40.0929L59.1433 39.9522L62.3352 39.2488L63.274 39.0144L64.2128 38.7799L64.823 38.6392L66.3251 38.2172C67.921 37.7952 69.5639 37.2794 71.2537 36.7167L72.4741 36.2946L72.7088 36.2008L73.8822 35.7788L74.5863 35.4975L75.8067 35.0285L76.0884 34.8879L77.5905 34.2314L79.5619 33.2935L80.4537 32.8246L80.6415 32.7308L81.064 32.4964L81.9088 32.0274L82.5191 31.6523L83.3639 31.1365L84.3497 30.5269L84.913 30.1048L85.4762 29.6828L85.9926 29.2608C86.8712 28.584 87.6879 27.8308 88.4334 27.01C88.8729 26.5704 89.2807 26.1003 89.6538 25.6032C91.5783 23.2586 94.0661 19.6948 97.1171 15.9903L97.5865 15.4276C98.8539 13.927 100.262 12.3796 101.717 10.879C101.893 10.6799 102.081 10.492 102.28 10.3163L102.797 9.80048C103.736 8.8939 104.674 8.04985 105.613 7.26831L106.176 6.79939C107.552 5.70998 108.994 4.70764 110.495 3.79827L111.011 3.51693C111.873 3.00784 112.767 2.55363 113.687 2.15704L114.344 1.8757L115.564 1.40677L116.034 1.26607L116.503 1.1254L116.925 0.984731L117.63 0.79715L118.24 0.656479H118.428L119.038 0.515808L119.695 0.422017H119.836L120.446 0.328227C132.932 -0.984758 148.375 8.62818 166.399 44.4539C166.487 44.6054 166.565 44.762 166.634 44.9228C167.385 46.4234 168.183 48.0177 168.934 49.6589C168.934 49.6589 205.594 10.5039 225.026 77.2785C225.824 80.0921 226.575 82.8118 227.233 85.5316C230.654 99.0677 232.59 112.936 233.006 126.891C233.037 129.204 233.037 131.455 233.006 133.643C232.959 137.207 232.818 140.583 232.537 143.866C232.255 147.148 232.067 149.305 231.692 151.884C231.191 155.979 230.534 159.825 229.72 163.42C229.016 166.749 228.218 169.891 227.373 172.798C221.647 192.915 213.573 203.7 213.573 203.7C213.573 203.7 218.69 243.184 232.631 265.41C236.151 270.991 238.357 279.103 239.343 288.247C239.437 288.95 239.531 289.701 239.578 290.404C239.624 291.107 239.718 291.811 239.765 292.514C239.812 293.218 239.812 293.124 239.812 293.452C239.812 293.78 239.859 294.437 239.906 294.953C239.953 295.468 239.953 296.125 239.953 296.735V296.969C240 298.938 240 301.142 239.953 303.393Z" fill="#F9E8DC"/>
<path d="M46.0004 174.064C46.0004 174.064 101.67 204.216 183.438 146.116L185.034 158.871C185.034 158.871 127.205 219.597 38.8657 184.803L46.0004 174.064Z" fill="#D73B24"/>
<path d="M79.3741 113.198C71.3944 106.164 56.7495 103.585 48.6759 112.026C47.4555 113.339 46.9861 116.715 49.7555 116.152C54.2617 115.167 58.2045 113.01 62.9454 112.729C67.9424 112.404 72.9421 113.323 77.4965 115.402C78.5292 115.871 80.3598 114.042 79.3741 113.198Z" fill="#191E1A"/>
<path d="M130.115 95.0976C131.832 90.7507 134.645 86.9219 138.283 83.9841C141.756 81.1706 145.934 80.1858 149.783 78.1695C151.379 77.3254 153.82 73.7147 150.628 73.1989C145.042 72.2611 138.94 76.6689 135.185 80.3734C131.126 84.3527 128.501 89.5637 127.721 95.1914C127.44 96.8795 129.693 96.0823 130.115 95.0976Z" fill="#191E1A"/>
<path d="M103.125 116.903C104.581 118.966 108.805 121.92 111.574 121.17C112.983 120.841 114.109 119.294 114.907 118.169C116.275 116.206 116.967 113.853 116.879 111.463C116.879 110.384 115.611 110.197 114.86 110.525C114.365 110.714 113.939 111.048 113.638 111.483C113.336 111.918 113.173 112.434 113.17 112.964C113.099 114.525 112.631 116.042 111.809 117.371C111.715 117.559 111.199 118.075 111.199 118.262C111.246 117.418 112.607 118.356 111.481 117.981C109.087 117.184 106.787 117.043 104.956 115.074C104.111 114.136 102.468 115.918 103.125 116.903Z" fill="#D73B24"/>
<path d="M110.636 120.982C111.199 124.03 109.697 127.266 106.411 127.782C105.145 128.017 103.838 127.87 102.656 127.36C101.623 126.938 101.013 126.187 99.9335 126C98.8539 125.812 99.0416 126.422 99.0886 126.844C99.4171 130.501 105.66 130.642 108.195 129.423C109.863 128.585 111.208 127.221 112.022 125.543C112.837 123.865 113.075 121.965 112.701 120.138C112.466 118.825 110.448 119.951 110.636 120.982Z" fill="#D73B24"/>
<path d="M111.856 120.982C115.048 123.374 118.428 125.484 122.324 123.374C126.219 121.263 127.815 118.497 127.205 114.699C126.924 112.823 124.295 114.464 124.389 115.871C124.459 117.082 124.16 118.286 123.532 119.324C122.903 120.362 121.975 121.185 120.868 121.686C118.146 122.811 115.236 120.982 112.936 119.669C112.325 119.341 111.246 120.513 111.856 120.982Z" fill="#D73B24"/>
<path d="M124.53 44.9228C124.295 50.7844 123.544 56.6928 124.342 62.5075C124.53 63.8673 126.454 62.7888 126.595 61.851C127.252 56.0363 126.548 50.2686 126.173 44.4539C126.126 43.4692 124.577 44.2195 124.53 44.9228Z" fill="#191E1A"/>
<path d="M131.946 48.0646C132.087 52.7539 131.664 57.8182 132.744 62.3668C132.979 63.3515 134.293 62.6013 134.387 61.8979C134.95 57.1149 134.105 52.0974 133.73 47.3143C133.636 46.142 131.946 47.1737 131.946 48.0646Z" fill="#191E1A"/>
<path d="M53.6984 77.3254C57.4066 80.8892 59.425 85.1095 61.725 89.6112C62.523 91.1117 65.1047 89.3298 64.7761 87.9699C63.5087 82.8118 59.7536 78.5915 55.6229 75.3559C54.5903 74.6056 52.7127 76.3875 53.6984 77.3254Z" fill="#191E1A"/>
<path d="M47.2678 84.5469C51.0476 86.8347 54.0178 90.2446 55.7638 94.3004C56.2332 95.4259 58.2985 93.9253 57.7352 92.9875C55.527 88.9011 51.9566 85.7158 47.6433 83.9841C47.3617 83.8435 46.9393 84.3593 47.2678 84.5469Z" fill="#191E1A"/>
<path d="M52.2902 131.252C61.0678 129.188 69.5169 129.61 78.3884 129.657C79.9374 129.657 81.9558 126.844 79.7496 126.375C70.8312 124.499 60.927 126.609 52.3841 129.423C51.5392 129.704 51.0698 131.533 52.2902 131.252Z" fill="#191E1A"/>
<path d="M59.0495 145.788C66.0904 143.022 73.5068 142.74 80.6415 140.63C82.1436 140.208 83.4109 137.301 81.2987 136.926C73.6476 135.613 64.9169 139.974 58.4393 143.537C57.2658 144.194 57.3127 146.492 59.0495 145.788Z" fill="#191E1A"/>
<path d="M157.95 90.4553C153.27 92.5198 148.87 95.1667 144.854 98.3332C141.334 101.194 137.156 104.898 135.56 109.259C134.95 110.853 136.546 111.932 137.907 110.853C141.146 108.321 143.681 104.898 146.685 102.085C150.171 98.8516 154.07 96.0924 158.279 93.8784C160.063 92.9406 160.626 89.283 157.95 90.4553Z" fill="#191E1A"/>
<path d="M165.508 101.756C156.589 103.21 147.53 106.68 141.428 113.573C140.254 114.886 141.052 116.856 142.883 115.683C150.018 111.135 156.824 106.492 165.085 104.101C166.212 103.773 167.244 101.475 165.508 101.756Z" fill="#191E1A"/>
<path d="M181.983 73.7616C180.094 71.9314 178.663 69.6824 177.806 67.1967C177.008 64.9459 177.008 62.5543 176.303 60.3504C175.975 59.4594 174.661 60.3504 174.473 60.8662C172.689 66.212 176.257 72.1204 180.293 75.4497C181.185 76.1531 182.828 74.5588 181.983 73.7616Z" fill="#191E1A"/>
<path d="M191.606 69.8695C188.273 65.5086 187.757 60.538 186.489 55.3798C186.067 53.6448 184.095 55.0984 183.814 56.1301C182.218 62.1323 185.222 67.8063 189.54 71.9797C190.573 72.9644 192.451 70.995 191.606 69.8695Z" fill="#191E1A"/>
<path d="M199.491 61.9916C197.99 59.7843 196.952 57.2958 196.44 54.6764C196.018 52.7538 196.253 50.3154 195.361 48.5804C194.469 46.8454 193.155 48.5335 192.732 49.3307C190.385 54.2544 193.953 60.6317 197.332 64.1955C198.365 65.2741 200.336 63.1639 199.491 61.9916Z" fill="#191E1A"/>
<path d="M68.2965 300.767C63.1332 299.501 59.0495 296.359 54.6372 293.593C53.7454 293.077 52.2433 294.624 52.7127 295.469C55.7168 300.533 61.2556 303.018 66.8414 304.331C68.6251 304.8 70.5496 301.33 68.2965 300.767Z" fill="#191E1A"/>
<path d="M77.8252 292.514C72.9905 292.186 68.8598 289.56 64.4006 287.919C62.9924 287.403 60.8802 289.279 61.5842 290.732C64.3067 296.5 70.6904 297.532 76.5109 296.969C78.3884 296.781 80.5946 292.702 77.8252 292.514Z" fill="#191E1A"/>
<path d="M78.7171 281.026C74.164 281.213 70.3619 279.009 66.0435 278.118C65.0578 277.931 63.5557 279.431 64.119 280.416C66.7476 285.152 73.1313 285.809 77.9661 285.434C80.313 285.246 81.909 280.885 78.7171 281.026Z" fill="#191E1A"/>
<path d="M133.448 183.63C126.266 186.35 121.432 195.447 124.811 203.747C128.191 212.047 137.062 215.048 144.479 212.328C150.722 210.078 154.899 203.747 154.524 197.51C153.96 187.897 142.695 180.113 133.448 183.63Z" fill="#FFD529"/>
<path d="M102.75 234.837C102.74 236.759 102.536 238.676 102.14 240.558C97.4457 262.597 68.6251 274.226 57.6414 265.833C56.5148 264.989 55.8107 263.253 55.3883 260.862C52.6658 245.81 61.6781 205.013 61.6781 205.013C74.868 197.37 103.266 207.076 102.75 234.837Z" fill="#FFD529"/>
<g style="mix-blend-mode:soft-light">
<g style="mix-blend-mode:soft-light">
<path d="M102.14 240.558C97.4457 262.597 68.6251 274.226 57.6413 265.833C56.5148 264.988 55.8107 263.253 55.3882 260.862C62.4291 260.534 69.4231 259.455 75.8068 257.111C81.0164 255.22 86.0181 252.8 90.7335 249.889C95.0049 247.216 98.4315 243.84 102.14 240.558Z" fill="#191E1A"/>
</g>
</g>
<path d="M194.094 367.589C195.455 363.884 195.783 359.054 193.577 355.631C193.376 355.264 193.062 354.971 192.682 354.794C192.303 354.617 191.876 354.565 191.465 354.646C190.877 354.704 190.315 354.917 189.837 355.263C189.359 355.609 188.981 356.076 188.742 356.616C188.038 357.976 188.414 358.914 189.118 360.18C190.465 362.453 190.869 365.162 190.245 367.729C189.634 370.355 193.436 369.23 194.094 367.589Z" fill="#191E1A"/>
<path d="M203.716 365.619C205.151 363.44 205.858 360.863 205.734 358.257C205.641 355.772 204.279 352.63 201.275 353.287C200.791 353.406 200.35 353.658 200.002 354.014C199.654 354.37 199.412 354.817 199.304 355.303C198.881 357.179 199.961 358.492 200.759 360.039C201.184 360.782 201.43 361.614 201.479 362.468C201.528 363.322 201.378 364.176 201.041 364.963C200.243 366.979 202.824 366.932 203.716 365.619Z" fill="#191E1A"/>
<path d="M71.77 369.183C70.5496 367.683 70.4557 366.041 70.1741 364.166C69.8925 362.29 70.6435 360.93 69.5169 359.523C68.3904 358.117 67.7333 359.242 67.0761 359.617C64.4945 361.118 64.119 364.353 64.7761 367.026C65.4332 369.699 67.6864 370.918 69.8456 371.575C71.019 371.95 72.6619 370.355 71.77 369.183Z" fill="#191E1A"/>
<path d="M83.364 368.245C81.6272 365.666 81.5803 362.993 81.815 359.992C81.9558 358.21 79.7027 358.539 79.0456 359.758C76.9803 363.415 77.6843 367.495 80.3129 370.731C81.3925 372.044 84.2089 369.558 83.364 368.245Z" fill="#191E1A"/>
<path d="M21.0287 92.1903C21.0287 92.1903 4.74082 64.1956 10.5143 53.4103C16.2879 42.6251 47.4554 49.4714 47.4554 49.4714C47.4554 49.4714 23.2818 69.8695 21.0287 92.1903Z" fill="#DD3919"/>
<path d="M97.3988 30.7145C97.3988 30.7145 113.687 5.9553 123.919 7.22139C134.152 8.48748 149.548 39.7647 149.548 39.7647C149.548 39.7647 113.968 28.9794 97.3988 30.7145Z" fill="#DD3919"/>
<g style="mix-blend-mode:soft-light">
<g style="mix-blend-mode:soft-light">
<path d="M31.2615 291.389C32.5758 293.499 33.1391 295.984 34.5473 298.048C35.9554 300.111 37.6922 301.471 39.382 302.924C42.9909 305.845 47.0917 308.1 51.4923 309.583C55.9516 311.13 61.0679 311.037 65.7149 311.084C70.3619 311.131 75.5252 311.224 78.8578 308.739C79.4681 308.27 80.6415 306.488 79.2803 306.019C77.9191 305.55 76.2293 305.972 74.4925 306.16C72.2345 306.433 69.956 306.496 67.6864 306.347C63.2741 306.113 59.472 304.378 55.2944 303.018C51.2589 301.632 47.3744 299.841 43.7004 297.672C41.9167 296.688 40.3208 295.422 38.631 294.343C36.9412 293.265 34.3126 292.42 32.435 290.404C31.9656 289.935 30.9329 290.873 31.2615 291.389Z" fill="#191E1A"/>
</g>
</g>
<g style="mix-blend-mode:soft-light">
<g style="mix-blend-mode:soft-light">
<path d="M107.866 362.478L107.538 362.384L106.411 362.056L106.27 361.962L105.66 361.774C104.674 361.493 103.736 361.118 102.75 360.743V360.836H102.609L102.515 360.93L102.14 361.258L101.811 361.493C101.154 362.056 100.121 362.853 98.8539 363.744C97.7466 362.654 96.5707 361.636 95.3334 360.696C92.3668 358.469 89.2097 356.508 85.8987 354.834C79.1079 351.379 71.7993 349.05 64.2597 347.941C62.3821 347.613 64.0719 345.034 65.4332 345.081C73.5393 345.29 81.5333 347.024 88.9966 350.192C92.7868 351.858 96.4163 353.867 99.8396 356.194C101.576 357.366 103.454 358.539 105.191 359.898C106.129 360.709 107.022 361.57 107.866 362.478Z" fill="#191E1A"/>
</g>
</g>
<g style="mix-blend-mode:soft-light">
<g style="mix-blend-mode:soft-light">
<path d="M199.304 345.174C191.136 345.268 184.002 347.613 177.477 352.489C173.722 355.35 170.671 358.82 167.526 362.243L165.32 360.742C165.32 360.742 162.879 361.399 158.795 362.196L158.514 362.29C158.986 361.22 159.535 360.186 160.156 359.195C163.677 353.662 169.591 349.488 175.506 346.722C183.373 343.206 191.965 341.615 200.571 342.079C202.683 342.22 200.806 345.174 199.304 345.174Z" fill="#191E1A"/>
</g>
</g>
<g style="mix-blend-mode:soft-light">
<g style="mix-blend-mode:soft-light">
<path d="M228.781 348.832C228.642 349.077 228.485 349.312 228.312 349.535L227.608 350.52L226.575 351.786C226.191 352.273 225.767 352.728 225.308 353.146C225.117 353.361 224.913 353.564 224.698 353.756L224.088 354.318C223.592 353.722 223.059 353.159 222.492 352.63C220.062 350.342 217.139 348.642 213.949 347.66C211.79 347.003 214.371 343.533 216.061 343.768C220.286 344.33 225.214 345.972 228.781 348.832Z" fill="#191E1A"/>
</g>
</g>
<g style="mix-blend-mode:soft-light">
<g style="mix-blend-mode:soft-light">
<path d="M107.866 362.478L107.538 362.384L106.411 362.056L106.27 361.962L105.66 361.774C105.519 361.211 105.331 360.602 105.144 359.992C104.956 359.383 104.487 358.163 104.205 357.273C103.125 353.427 102.844 349.066 102.703 345.081C102.392 336.948 101.514 328.847 100.074 320.837C99.4641 317.742 98.76 314.6 97.9621 311.506C96.8355 307.379 95.5681 303.299 94.113 299.361C92.6579 295.422 92.0008 291.811 89.9824 288.575C87.964 285.34 85.2885 283.464 84.866 280.322C84.6783 279.244 85.9925 277.978 87.0721 278.118C90.3579 278.587 92.7987 282.151 94.911 284.543C97.0233 286.934 100.356 289.748 102.515 292.983C106.505 298.938 108.946 304.988 110.636 311.787C110.87 312.584 111.058 313.428 111.246 314.272C113.217 322.947 113.687 331.716 113.593 340.579C113.499 345.174 113.076 349.957 111.856 354.412C111.152 357.038 109.931 359.523 109.415 362.149C109.361 362.38 109.329 362.616 109.321 362.853L107.866 362.478Z" fill="#191E1A"/>
</g>
</g>
<g style="mix-blend-mode:soft-light">
<g style="mix-blend-mode:soft-light">
<path d="M202.402 269.865C186.302 281.401 176.351 298.563 170.014 317.039C164.944 331.904 161.048 347.097 157.622 362.431C155.65 362.806 153.397 363.228 150.863 363.603L149.877 363.744C150.487 357.413 151.238 351.083 152.412 344.846C154.289 334.248 157.199 323.885 161.893 313.991C170.624 295.515 183.955 278.681 201.51 267.896C203.2 266.864 203.716 268.927 202.402 269.865Z" fill="#191E1A"/>
</g>
</g>
<g style="mix-blend-mode:soft-light">
<g style="mix-blend-mode:soft-light">
<path d="M184.659 143.866C191.277 134.253 194.657 121.92 193.342 110.244C192.122 99.4586 187.334 85.766 176.82 81.0299C175.975 80.6079 174.614 81.9209 175.083 82.7649C177.336 87.3604 180.34 91.5338 182.64 96.0823C185.091 100.953 186.709 106.199 187.428 111.604C188.836 122.483 187.757 133.127 182.03 142.693C180.669 144.944 183.438 145.694 184.659 143.866Z" fill="#191E1A"/>
</g>
</g>
<g style="mix-blend-mode:soft-light">
<g style="mix-blend-mode:soft-light">
<path d="M72.1924 69.1192C65.9965 64.008 58.8617 57.9589 55.6229 50.503C55.3756 49.9836 55.1562 49.4514 54.9657 48.9087C53.7918 46.0422 52.9417 43.0539 52.431 39.9991L55.2004 40.4681H55.6229L56.2331 40.3743H56.5617L58.4392 39.9991L59.0964 39.8585L62.2883 39.1551L63.2271 38.9206L64.1658 38.6862C64.3918 40.7519 64.7366 42.8029 65.1985 44.829C66.1373 48.6273 66.9352 52.6601 68.3434 56.3177C69.7634 60.1511 71.9881 63.6366 74.8679 66.5402C76.0884 67.7594 73.5537 70.2916 72.1924 69.1192Z" fill="#191E1A"/>
</g>
</g>
<g style="mix-blend-mode:soft-light">
<g style="mix-blend-mode:soft-light">
<path d="M83.5986 66.5402C81.2517 60.3973 78.717 52.3318 73.8353 47.7833C71.2537 45.3918 68.625 43.1409 66.4189 40.3743L64.776 38.4517L66.2781 38.0297C67.8741 37.6076 69.5169 37.0918 71.2067 36.5291L72.4271 36.1071L72.6618 36.0133L73.8353 35.5913L74.5394 35.3099L75.7598 34.841L76.0414 34.7003L77.5435 34.0438C78.6482 36.6439 79.497 39.3451 80.0782 42.1093C81.768 49.4714 85.8048 56.2708 88.2456 63.4453C89.0436 65.8368 84.6313 69.2599 83.5986 66.5402Z" fill="#191E1A"/>
</g>
</g>
<g style="mix-blend-mode:soft-light">
<g style="mix-blend-mode:soft-light">
<path d="M94.911 57.0679C91.109 50.4092 86.5558 44.4539 82.6129 37.9828L79.515 33.106L80.4068 32.637L80.5946 32.5433L81.017 32.3088L81.8619 31.8399L82.4722 31.4647L83.317 30.9489L84.3027 30.3393L84.8661 29.9173L85.4293 29.4953L85.9456 29.0732C86.8242 28.3965 87.641 27.6432 88.3865 26.8224C88.826 26.3828 89.2338 25.9127 89.6069 25.4156C90.4987 27.1975 91.3436 28.9795 92.1886 30.7145C95.6151 37.9359 97.6335 46.142 99.6988 53.8324C100.356 56.2239 96.507 59.8346 94.911 57.0679Z" fill="#191E1A"/>
</g>
</g>
<g style="mix-blend-mode:soft-light">
<g style="mix-blend-mode:soft-light">
<path d="M232.959 133.456C230.706 135.144 228.453 136.738 226.153 138.332C222.914 140.536 218.267 145.179 214.09 143.209C212.447 142.459 212.447 140.583 212.963 139.083C214.606 134.3 220.051 132.705 224.182 130.689C227.092 129.282 230.002 127.969 232.959 126.703C232.99 129.016 232.99 131.267 232.959 133.456Z" fill="#191E1A"/>
</g>
</g>
<g style="mix-blend-mode:soft-light">
<g style="mix-blend-mode:soft-light">
<path d="M232.49 143.678C232.302 146.46 232.02 149.133 231.645 151.697C226.012 156.058 218.314 160.653 212.306 156.995C209.959 155.589 211.508 152.681 213.198 151.509C218.971 147.476 226.388 147.289 232.349 143.725L232.49 143.678Z" fill="#191E1A"/>
</g>
</g>
<g style="mix-blend-mode:soft-light">
<g style="mix-blend-mode:soft-light">
<path d="M229.673 163.232C228.969 166.561 228.171 169.703 227.327 172.611C222.773 175.237 217.704 177.065 212.588 177.159C212.04 177.109 211.515 176.919 211.062 176.607C210.61 176.295 210.246 175.871 210.006 175.377L209.771 174.815C209.161 173.08 210.053 171.485 211.179 170.172C213.996 166.843 218.033 167.359 221.928 166.421C224.655 165.751 227.266 164.676 229.673 163.232Z" fill="#191E1A"/>
</g>
</g>
<g style="mix-blend-mode:soft-light">
<g style="mix-blend-mode:soft-light">
<path d="M27.741 229.21C31.4492 227.334 35.7677 225.693 38.7248 222.738C41.682 219.784 41.2126 215.798 36.9412 216.033C33.5146 216.267 29.9942 218.612 26.8962 220.112C23.7982 221.613 22.0145 223.817 22.343 226.724C22.6716 229.632 25.5349 230.335 27.741 229.21Z" fill="#191E1A"/>
</g>
</g>
<g style="mix-blend-mode:soft-light">
<g style="mix-blend-mode:soft-light">
<path d="M26.8492 242.011L31.2145 239.807C32.9594 238.877 34.5441 237.674 35.9085 236.243C37.6452 234.508 37.7391 231.226 34.6411 231.46C33.1118 231.513 31.6097 231.88 30.2288 232.539L26.0982 234.555C24.1267 235.493 22.1084 237.556 22.39 239.995C22.6716 242.433 25.0186 242.949 26.8492 242.011Z" fill="#191E1A"/>
</g>
</g>
<g style="mix-blend-mode:soft-light">
<g style="mix-blend-mode:soft-light">
<path d="M26.8492 253.734L30.088 251.952C31.4961 251.155 32.435 250.077 33.4676 248.811C34.5003 247.544 34.3594 245.2 32.4349 245.012C31.0813 244.891 29.7198 245.133 28.4921 245.716L25.1594 247.216C23.1879 248.06 21.0757 250.405 21.7328 252.75C22.39 255.094 25.1125 254.719 26.8492 253.734Z" fill="#191E1A"/>
</g>
</g>
<g style="mix-blend-mode:soft-light">
<g style="mix-blend-mode:soft-light">
<path d="M196.91 286.371C195.465 286.401 194.05 286.779 192.783 287.473C191.516 288.167 190.436 289.156 189.634 290.357C188.34 292.15 187.724 294.343 187.898 296.547C187.973 297.545 188.302 298.508 188.852 299.344C189.402 300.181 190.156 300.864 191.042 301.33C193.389 302.408 196.253 301.517 198.177 300.158C201.792 297.579 205.077 291.014 200.994 287.356C195.596 282.526 186.724 289.513 187.569 295.797C188.085 299.829 191.84 301.564 195.502 300.205C199.163 298.845 202.871 294.015 201.181 289.841C200.055 287.168 196.722 288.059 194.845 289.138C192.967 290.216 191.794 290.826 190.761 292.374C189.728 293.921 189.306 295.14 189.681 296.5C189.871 297.11 190.242 297.647 190.745 298.041C191.248 298.435 191.86 298.666 192.498 298.704C194 298.845 195.596 298.001 196.957 297.438L191.653 294.999C191.653 295.093 191.7 295.187 191.7 295.281C191.67 294.624 191.799 293.97 192.077 293.374C192.355 292.778 192.773 292.258 193.296 291.858C194.047 291.107 195.126 290.357 196.253 290.357C196.5 290.33 196.751 290.358 196.986 290.439C197.221 290.521 197.436 290.653 197.614 290.826C197.192 290.451 197.661 290.92 197.755 291.107C197.473 290.592 197.708 291.201 197.755 291.436C197.802 291.67 197.708 291.06 197.708 291.529C197.742 291.969 197.608 292.405 197.332 292.749C196.722 294.202 195.173 295.984 193.389 295.797C194.047 295.89 193.296 295.609 193.202 295.703L193.483 295.797C193.859 295.984 193.859 295.984 193.53 295.797C193.202 295.609 193.202 295.562 193.343 295.703L193.249 295.562C192.873 294.906 193.202 295.562 193.249 295.703C193.296 295.844 193.014 294.718 193.108 295.328C193.202 295.937 193.249 294.484 193.108 294.953C192.967 295.422 193.483 293.874 193.296 294.437C193.108 294.999 192.779 295.234 193.577 294.015C193.155 294.624 194.047 293.499 194.094 293.452C194.14 293.405 194.61 293.03 194.657 292.983L195.361 292.655L195.596 292.561L196.534 292.42C196.018 292.373 197.379 292.702 196.769 292.467C196.159 292.233 196.91 292.561 197.051 292.655C197.192 292.749 196.394 291.998 196.91 292.561C197.426 293.124 197.004 292.702 196.957 292.514C197.426 293.874 196.91 292.28 196.957 292.28C197.004 292.28 196.863 293.452 196.957 292.608C197.051 291.764 197.098 291.811 196.957 292.608C196.816 293.405 196.816 293.077 196.91 292.842C197.004 292.608 196.91 292.702 196.534 293.499C196.91 292.889 196.112 294.015 196.065 294.015C195.664 294.452 195.165 294.789 194.61 294.999C193.483 295.421 193.906 295.187 194.375 295.14C196.628 294.906 198.694 292.655 199.304 290.592C199.914 288.528 199.163 286.324 196.91 286.371Z" fill="#191E1A"/>
</g>
</g>
<path d="M164.944 373.872C164.944 373.872 163.067 375.701 159.265 377.483C151.285 381.234 134.762 384.939 108.805 371.95C75.0088 355.022 81.4395 321.587 95.3805 301.893C95.9842 300.964 96.6425 300.071 97.3519 299.22C98.6155 297.589 99.9793 296.039 101.436 294.577C101.436 294.577 100.027 291.858 98.4784 288.106C95.709 281.401 92.611 271.366 96.7886 267.614C103.36 261.753 108.946 265.692 108.946 265.692C109.368 264.941 117.911 250.03 133.448 262.784C133.448 262.784 136.64 250.874 151.332 262.222C151.332 262.222 190.714 259.643 194.234 285.574C195.971 298.047 193.202 303.815 189.869 306.394C188.768 307.226 187.511 307.829 186.173 308.167C184.834 308.506 183.442 308.572 182.077 308.364C182.077 308.364 182.453 309.395 183.016 311.177C185.926 321.165 193.249 354.975 164.944 373.872Z" fill="#E8B859"/>
<g style="mix-blend-mode:soft-light">
<g style="mix-blend-mode:soft-light">
<path d="M182.077 308.364C182.077 308.364 182.453 309.395 183.016 311.177C175.224 310.943 167.526 308.458 159.828 307.801C155.556 307.426 151.191 306.394 147.014 305.41C145.938 305.097 144.887 304.705 143.869 304.237C143.165 303.909 142.46 304.097 141.663 304.237C139.832 304.659 138.142 305.363 136.311 305.832C133.073 306.629 129.599 306.113 127.205 303.581C124.811 301.049 124.389 297.672 121.807 295.937C119.226 294.202 114.485 296.406 111.434 297.813C108.383 299.22 104.017 301.002 99.9336 300.064C99.0417 299.889 98.1747 299.605 97.3519 299.22C98.6155 297.589 99.9794 296.039 101.436 294.577C101.436 294.577 100.027 291.858 98.4785 288.106C102.187 290.17 106.693 291.201 110.448 292.139C112.889 292.796 115.987 291.389 118.709 291.717C121.432 292.045 124.06 292.702 126.313 295.046C128.566 297.391 129.881 300.158 132.509 301.283C135.138 302.409 139.55 300.861 142.601 300.392C143.694 300.316 144.778 300.143 145.84 299.876C146.78 299.509 147.789 299.349 148.797 299.407C150.689 299.629 152.53 300.168 154.242 301.002C157.856 302.596 161.659 304.706 165.508 305.503C169.767 306.385 174.114 306.779 178.463 306.676C182.265 306.535 186.067 306.254 189.869 306.394C188.768 307.226 187.511 307.829 186.173 308.167C184.834 308.506 183.442 308.573 182.077 308.364Z" fill="#191E1A"/>
</g>
</g>
<g style="mix-blend-mode:soft-light">
<g style="mix-blend-mode:soft-light">
<path d="M159.265 377.483C151.285 381.235 134.762 384.939 108.805 371.95C75.0088 355.022 81.4395 321.587 95.3804 301.893C95.805 302.579 95.94 303.405 95.7559 304.19C94.0661 312.068 96.1784 321.072 98.5723 328.903C98.6173 329.056 98.6487 329.213 98.6662 329.372H98.7131L98.807 329.653L99.3703 331.013L100.309 333.404C101.074 335.231 101.936 337.015 102.891 338.75C104.954 342.374 107.309 345.824 109.932 349.066L110.636 349.957C110.648 349.957 110.66 349.962 110.669 349.971C110.678 349.98 110.683 349.992 110.683 350.004L111.246 350.614L113.123 352.583C114.579 354.037 116.128 355.397 117.677 356.757C120.896 359.523 124.351 362.002 128.003 364.166L129.646 365.15L129.834 365.291H129.975L132.603 366.651C134.481 367.542 136.358 368.527 138.236 369.511C142.387 371.533 146.65 373.318 151.003 374.857C153.773 375.936 156.448 376.78 159.265 377.483Z" fill="#191E1A"/>
</g>
</g>
<path d="M101.717 278.494C108.617 277.649 115.893 276.805 122.793 277.884C129.693 278.962 136.311 279.103 143.071 279.76C150.032 280.446 156.945 281.558 163.771 283.089C167.01 283.839 170.248 284.965 173.581 285.48C175.318 285.715 177.055 285.902 178.791 286.184C180.528 286.465 182.312 287.169 184.142 286.981C184.518 286.934 185.128 286.465 184.846 286.09C184.049 284.824 182.171 284.121 180.904 283.37C179.636 282.62 178.275 281.776 176.914 281.026C173.91 279.338 170.201 278.54 166.869 277.649C160.001 275.733 153.005 274.307 145.934 273.382C138.658 272.491 131.383 272.069 124.154 273.335C116.925 274.601 109.368 275.164 102.046 276.571C100.919 276.805 100.121 278.681 101.717 278.494Z" fill="#191E1A"/>
<path d="M96.8825 301.893C100.586 302.262 104.161 303.447 107.35 305.363C110.448 307.145 112.936 309.583 115.611 311.928C120.634 316.382 125.562 320.931 131.617 323.979C142.46 329.465 156.448 328.903 167.573 324.495C170.754 323.246 173.791 321.658 176.632 319.759C179.261 317.977 182.734 315.726 184.142 312.819C185.081 310.849 182.5 310.568 181.326 311.224C178.885 312.537 176.914 314.741 174.567 316.195C172.237 317.683 169.75 318.91 167.15 319.852C156.5 323.706 144.767 323.269 134.434 318.633C128.144 316.007 123.028 311.506 117.395 307.801C111.762 304.097 105.144 300.064 97.9151 299.642C96.6477 299.595 95.1457 301.752 96.8825 301.893Z" fill="#D73B24"/>
<path d="M144.76 323.979C137.532 324.635 129.458 326.605 123.732 331.247C121.15 333.357 118.615 337.203 120.775 340.438C122.934 343.674 126.548 343.674 129.552 342.923C132.556 342.173 136.264 339.922 138.658 337.343C139.823 336.047 140.803 334.595 141.569 333.029C142.367 331.482 142.648 329.512 143.728 328.152C145.84 325.339 151.942 328.809 154.148 330.169C155.795 331.183 157.322 332.378 158.701 333.733C160.016 334.999 162.034 336.921 162.175 338.844C162.269 340.016 162.128 340.157 161.142 339.735L158.467 338.516C156.317 337.347 154.261 336.015 152.318 334.53C150.496 333.131 148.756 331.627 147.107 330.028C145.465 328.434 144.15 326.464 142.085 325.386C141.193 324.917 139.456 326.042 139.738 327.074C140.16 328.856 141.381 329.981 142.601 331.294C144.171 332.979 145.849 334.561 147.624 336.03C150.757 338.581 154.138 340.811 157.716 342.689C160.626 344.19 164.099 343.955 166.024 341.001C167.948 338.047 166.165 334.624 164.005 332.185C159.781 327.308 151.426 321.587 144.526 323.651C140.724 324.823 139.362 327.965 138.048 331.341C136.734 334.717 133.589 338.703 129.411 339.078C127.628 339.266 125.328 337.859 125.75 335.749C126.173 333.639 129.317 332.326 130.96 331.435C135.279 329.09 139.597 327.121 144.432 326.042C145.605 325.761 146.544 323.791 144.76 323.979Z" fill="#D73B24"/>
<path d="M138.47 327.168C139.525 330.866 139.243 334.817 137.673 338.328C136.264 341.798 133.964 343.908 131.289 346.347C128.613 348.785 126.83 350.801 126.595 353.849C126.407 356.147 127.205 359.008 129.646 359.758C130.256 359.945 131.195 359.336 130.913 358.679C128.003 351.692 136.452 348.316 139.597 343.252C142.742 338.187 142.273 331.951 139.456 326.746C139.222 326.324 138.33 326.746 138.47 327.168Z" fill="#D73B24"/>
<path d="M140.02 331.294C144.338 337.625 148.187 344.33 145.418 352.161C144.995 353.287 146.638 353.24 147.06 352.49C151.754 344.94 146.169 336.452 141.756 330.263C141.193 329.512 139.503 330.497 140.02 331.294Z" fill="#D73B24"/>
<g style="mix-blend-mode:soft-light">
<g style="mix-blend-mode:soft-light">
<path d="M184.095 149.118C175.271 155.026 165.883 160.325 157.387 166.608C148.891 172.892 140.489 177.394 131.289 181.52C113.499 189.586 94.5824 194.791 74.9149 193.618C63.8944 192.989 53.0797 190.368 42.9962 185.881C40.086 184.568 37.3166 181.614 37.2697 178.285C37.2227 174.955 39.4758 173.08 42.4799 173.877C53.0412 176.737 63.8842 179.082 74.8679 179.269C80.4507 179.3 86.0305 179.002 91.5783 178.378C97.164 177.816 103.031 175.752 108.336 178.05C110.401 178.894 112.513 181.473 111.574 183.818C109.462 188.882 101.436 189.539 96.5539 190.43C90.7263 191.437 84.8184 191.908 78.9047 191.836C66.6066 191.836 54.4963 190.148 42.9962 185.881L45.6718 175.237C55.7637 180.864 67.6863 183.255 79.1864 183.536C90.6865 183.818 103.125 182.599 114.578 179.504C126.032 176.409 137.673 170.688 149.126 165.764C152.13 164.498 155.181 163.467 158.091 161.966C161.001 160.465 163.677 158.824 166.446 157.183C171.938 153.994 177.43 150.665 182.875 147.336C183.72 146.867 184.987 148.508 184.095 149.118Z" fill="#191E1A"/>
</g>
</g>
</g>
<defs>
<clipPath id="clip0_202_1992">
<rect width="240" height="381" fill="white" transform="matrix(-1 0 0 1 240 0)"/>
</clipPath>
</defs>
</svg>
